<?xml version="1.0" encoding="utf-8"?>
<!-- Generator: Adobe Illustrator 24.1.3, SVG Export Plug-In . SVG Version: 6.00 Build 0)  -->
<svg version="1.1" id="Layer_1" xmlns="http://www.w3.org/2000/svg" xmlns:xlink="http://www.w3.org/1999/xlink" x="0px" y="0px"
	 viewBox="0 0 586.8 355.9" style="enable-background:new 0 0 586.8 355.9;" xml:space="preserve">
<style type="text/css">
	.st0{fill:#FFFFFF;}
</style>
<g>
	<path class="st0" d="M324.2,182.5c3.3-0.2,6.1-0.4,6-2.7l-0.1-1.7l-12.3,0.8l0.1,1.6C318,182.5,319.7,182.8,324.2,182.5z"/>
	<path class="st0" d="M439.4,260.3c-1.8,0.4-1.6,2.4-0.6,6.8c1.1,4.4,1.8,6.3,3.6,5.8c1.8-0.4,1.6-2.4,0.6-6.8
		C441.9,261.7,441.2,259.8,439.4,260.3z"/>
	<path class="st0" d="M434.7,198.9h-2.1v6h1.9c1.3,0,2.2-0.2,2.8-0.7c0.5-0.4,0.8-1.2,0.8-2.2c0-1.1-0.2-2-0.7-2.4
		C436.8,199.1,435.9,198.9,434.7,198.9z"/>
	<path class="st0" d="M421.7,165.2l-33.7-0.1c-3.3,0-0.5,1.3,0.8,4.9c1.2,3.6,1.5,9.6,13.5,13.3c0,0,1.1,2.3,2.8,2.2
		c2.2,0,6.2-1.7,10.8-2.6c8.3-1.7,17.7-4,15.3-11.2C429,166.4,421.7,165.2,421.7,165.2z"/>
	<polygon class="st0" points="512.3,148.4 511.4,145.4 504.5,149.1 504.5,149.1 	"/>
	<polygon class="st0" points="323.5,193.2 324.1,196.3 331.3,193.1 331.3,193.1 	"/>
	<path class="st0" d="M482.2,109c-1.2,1.2-1.2,2.1-0.4,2.9l1.1,1.1l3.5-3.5l-1.1-1.1C484.3,107.4,483,108.2,482.2,109z"/>
	<path class="st0" d="M426.3,262.7l-1.7,0.2l1.1,12.2l1.6-0.1c2-0.2,2.3-1.9,1.9-6.3C428.8,265.4,428.6,262.5,426.3,262.7z"/>
	<path class="st0" d="M335.6,205.5l-0.6-1.6l-11.5,4.3l0.6,1.5c0.7,1.9,2.5,1.7,6.6,0.1C333.8,208.7,336.5,207.7,335.6,205.5z"/>
	<path class="st0" d="M353,234l-1.2-1.3l-9.1,8.3l1.1,1.2c1.4,1.5,2.9,0.7,6.2-2.3C352.5,237.7,354.6,235.7,353,234z"/>
	<path class="st0" d="M357.2,246.6c-2.9,3.5-3.9,5.2-2.4,6.4c1.5,1.2,2.9-0.2,5.8-3.7c2.9-3.5,3.9-5.2,2.4-6.4
		C361.5,241.7,360.1,243.1,357.2,246.6z"/>
	<path class="st0" d="M460.5,252.6l-1.5,0.8l5.8,10.8l1.4-0.8c1.8-1,1.4-2.7-0.7-6.6C463.9,254,462.6,251.5,460.5,252.6z"/>
	<polygon class="st0" points="413.1,263.6 411.1,271.1 414.3,271.3 413.1,263.6 	"/>
	<path class="st0" d="M504.3,215.3c-4-2.1-5.9-2.7-6.8-1c-0.9,1.7,0.8,2.8,4.8,4.9c4,2.1,5.9,2.7,6.8,1
		C510,218.5,508.4,217.4,504.3,215.3z"/>
	<path class="st0" d="M511.9,192.3c-3.2-0.7-6-1.3-6.5,1l-0.4,1.7l12,2.6l0.3-1.6C517.8,194,516.3,193.2,511.9,192.3z"/>
	<path class="st0" d="M584.3,147.6C569,55.5,481.7-10.2,389.2,1.3c-56.4,7-99.9,35-130.8,82.6c-0.8,1.2-1.6,2.5-2.7,4.1
		C238.6,58.6,222,29.8,205,0.3C136.4,119.1,68.4,236.9,0,355.4c1.3,0.2,1.8,0.4,2.3,0.4c24.6,0,49.1,0.1,73.7-0.1
		c1.9,0,4.3-1.8,5.6-3.4c22.1-27.6,44.1-55.2,66.2-82.8c1.3-1.6,3.7-3.2,5.7-3.2c34.2-0.2,68.5-0.1,102.7,0.1c2,0,4.5,1.4,5.8,2.9
		c22.3,27.6,44.4,55.3,66.5,83.1c2,2.5,4,3.5,7.1,3.5c23.8-0.1,47.6,0.5,71.3-0.3c13.9-0.4,28-1.5,41.4-4.6
		C541.3,329.8,600,241.8,584.3,147.6z M516.2,164.7l-0.5-3.4c1.4-0.2,3.5-0.2,3.3-2c-0.1-0.8-0.9-1.2-1.7-1.1l-13.7,2.1l-0.5-3.3
		l13.4-2c3.1-0.5,4.7,1.6,5.1,3.9C522.3,163.5,520.2,164.1,516.2,164.7z M517.3,141.9l-3.5,2l1.3,4.4l4-0.2l0.9,3.2l-18.3,0.7
		l-1.3-4.3l15.8-9.2L517.3,141.9z M511.8,128.4L502,138l0,0l11.7-5.6l1.4,2.8l-16,7.6l-2-4.1l9.2-9.1l0,0l-11.1,5.3l-1.4-2.8l16-7.6
		L511.8,128.4z M507.5,120.5l-14.8,9.8l-4.9-7.3l2.3-1.5l3,4.5l3.6-2.4l-2.8-4.2l2.3-1.5l2.8,4.2l4.3-2.9l-3.1-4.7l2.3-1.5
		L507.5,120.5z M500.5,110.5l-13.8,11.1l-2.1-2.6l13.8-11.1L500.5,110.5z M485.1,101.4c0.8-0.8,3.1-3.2,3.4-3.9l2.3,2.3
		c-0.5,1.1-1.4,1.9-2.2,2.7c-1.5,1.5-2.9,2.6-1.1,4.5l0.6,0.6l5.2-5.2l2.4,2.4l-12.6,12.5l-4.4-4.4c-1.6-1.6-1.5-3.8,0.6-5.9
		c1.6-1.6,3.4-2.2,5.2-0.9l0,0C484.3,105.3,482.9,103.6,485.1,101.4z M471.6,95.3c2.8-3.7,5.5-7.3,10-3.9c4.4,3.4,1.7,7-1.1,10.7
		c-2.8,3.7-5.5,7.3-10,3.9C466,102.6,468.7,99.1,471.6,95.3z M406.4,80.4c0.3-4,1.8-7.1,4.9-9.4c-1.3,5.8,3.4,8.5,6.5,16
		c3.8,9.2-2.4,16-8.6,17.8c-5.6,1.6-11.9,2-16,3.4c-4.2,1.5-8.7,5.5-8.7,5.5s-0.4-4.3,4.7-9.5c6.1-5.5,11.4-4.8,16.3-10
		C409.8,89.5,406,85.8,406.4,80.4z M389.7,89.7c7.8-4.8,2.2-12.2-2.2-15.2c8.9-1.7,20.5,14.4,6.5,20.1c-13,5.3-13.5,16.8-13.5,16.8
		S373.8,99.5,389.7,89.7z M408.1,111.1c18.4-2.4,17.9-13.6,16.8-20.5c-1.3-8.7,4.9-13.6,4.8-13C427.1,88,443.4,99,443.4,99
		s0.3-1.6-1.2-5c-1.5-3.6-3.1-4.8-2.8-8.7c2.9,9.1,35.6,15.6,5.1,35.7c0.6-0.1,1.4,0.2,2,0.2c16.6,1,16.5-10.2,16.4-10.9
		c0,0,6.4,16.5-12.8,20.6c-18.5,4-9.1,12.8-11.3,12.7c-2.2-0.1-16-6.9-5.3-22c-22.6,12.9-0.8,23-5.4,23.1c-2.7,0-7.7,0-10.5-0.1
		c-3.7,0,4-6.9-4.5-11.2c-7.5-3.9-8.9-7.2,1-13.3c-19.9,3.8-19.9,12.4-12,16c4.6,2.2,7.9,8.6,0.2,8.6c0,0-28.2,1.7-29.9-12.4
		C370.8,118.2,398.1,112.4,408.1,111.1z M416.6,147.5h25.8c0,0,1.2,0.3,1.8,3.3l-40.7,0c0,0-0.1-1.2,0.7-1.2c1.4,0,6.3,0,11.1,0
		C415.2,147.9,415.8,147.5,416.6,147.5z M415.8,154.2c-0.1-0.9-0.2-2.1,1.2-2.1l28.8,0c0,0,2.6,0.4,3.4,3.5l-51.5,0
		c0,0-0.1-1.4,0.9-1.4C399.6,154.2,413.6,154.2,415.8,154.2z M417.2,157.3c1.3,0,33.2,0,33.2,0c1.6,0.4,7.5,1.7,7.5,5
		c0,0-37.4,0-38.6,0C418.1,162.3,415.5,157.3,417.2,157.3z M379.9,162.1c-1.3-0.6-0.3-6,8.2-7c2.8-5.9,5.1-3.3,6-4.5
		c0.8-2.9,2.1-2.8,2.1-2.8s-1.1,0.3-1.7,3.3c-0.9,1.2-3.3-1.1-5.6,5c-1.8,0.4-8.3,2.6-8.7,6.1C380.4,162.1,380.4,162.3,379.9,162.1z
		 M354.8,92.2c2.9-2.3,5.6-1.7,7.7,0.9l7.7,9.9l-2.7,2.1l-7.6-9.7c-1.3-1.7-2.5-1.9-3.5-1.1c-1.2,0.9-1,2.2,0.2,3.7l7.6,9.7
		l-2.7,2.1l-7.7-9.9C352.2,97.8,351.6,94.8,354.8,92.2z M342,104.5l12.5,5.7l0,0l-9.5-8.9l2.2-2.3l12.9,12.1l-3.1,3.3l-11.9-5.3l0,0
		l8.9,8.4l-2.2,2.3L339,107.7L342,104.5z M336.5,111.1l14.2,10.6l-2,2.7l-14.2-10.6L336.5,111.1z M330.7,119.4l17.3,5.7l-1.8,3
		l-12.3-4.5l0,0l9.6,9l-1.7,2.9l-13-12.8L330.7,119.4z M325.2,129.2l16.3,7.1l-3.5,8.1l-2.5-1.1l2.2-5l-4-1.7l-2,4.6l-2.5-1.1l2-4.6
		l-4.8-2.1l-2.2,5.1l-2.5-1.1L325.2,129.2z M318.4,147.7c1.2-0.1,2.3,0.3,3.4,0.6c2,0.6,3.7,1.3,4.4-1.2l0.2-0.8l-7.1-2l0.9-3.2
		l17,4.9l-1.7,6c-0.6,2.2-2.6,3.2-5.5,2.3c-2.2-0.6-3.6-1.9-3.4-4.1l0,0c-0.3,0.7-1.1,2.7-4.2,1.8c-1.1-0.3-4.3-1.2-5.1-1.1
		L318.4,147.7z M315.8,158.9c0.6-4.1,3.4-4.5,6.4-3.9l-0.5,3.3c-1.7-0.2-3.1-0.4-3.4,1.5c-0.2,1.1,0.6,1.8,1.7,2
		c3.2,0.5,4.3-6.2,9.6-5.5c2.7,0.4,4.8,1.9,4.2,6c-0.5,3.2-2.3,4.6-5.9,3.9l0.5-3.2c1.3,0.2,2.7,0.2,2.9-1.2c0.2-1.1-0.4-1.8-1.6-2
		c-3.3-0.5-4,6.3-9.5,5.5C315.6,164.5,315.5,161.4,315.8,158.9z M315.2,168.1l17.7,0.8l-0.1,3.4l-17.7-0.8L315.2,168.1z
		 M314.9,175.7l17.7-1.1l0.4,5.6c0.3,4.4-2.9,5.4-8.4,5.8c-2.7,0.2-8.9,0.9-9.3-4.8L314.9,175.7z M318,199.3l3.7-1.7l-1-4.5l-4-0.1
		l-0.7-3.3l18.3,0.6l0.9,4.3l-16.4,8L318,199.3z M321.7,211.2l-1.9-5.1l16.6-6.3l2,5.3c1.6,4.1-1.2,6.1-6.3,8
		C329.5,214,323.8,216.6,321.7,211.2z M334.1,219.3l-4.6,2.5l2.7,4.9l-2.4,1.3l-4.3-7.9l15.6-8.5l4.2,7.7l-2.4,1.3l-2.6-4.8
		l-3.8,2.1l2.4,4.4l-2.4,1.3L334.1,219.3z M342.2,244.4l-3.7-4.1l13.1-12l3.8,4.2c3,3.3,1.1,6.1-2.9,9.8
		C350.5,244.2,346.1,248.6,342.2,244.4z M363.2,251.5c-2.9,3.6-5.8,7.1-10.1,3.6c-4.3-3.5-1.5-7,1.5-10.6c3-3.6,5.8-7.1,10.1-3.6
		C369,244.4,366.2,247.8,363.2,251.5z M368.5,199.1c-0.2-0.2-0.7-0.3-1.5-0.3h-1.1v-3.2h12.8v3.2h-1.2c-0.8,0-1.3,0.1-1.5,0.3
		c-0.2,0.2-0.3,0.8-0.3,1.6v10.1c0,1.8,0.3,3,0.8,3.7c0.5,0.7,1.4,1.1,2.6,1.1c1.4,0,2.5-0.3,3.1-1c0.6-0.7,0.9-1.8,0.9-3.4v-10.3
		c0-0.9-0.1-1.4-0.3-1.6c-0.2-0.2-0.7-0.3-1.4-0.3h-1.1v-3.2h9.9v3.2h-1c-0.7,0-1.2,0.1-1.4,0.3c-0.2,0.2-0.3,0.7-0.3,1.5v11
		c0,2.4-0.8,4.3-2.5,5.6c-1.6,1.3-4,1.9-7.2,1.9c-2.9,0-5.1-0.6-6.7-1.9c-1.6-1.3-2.4-3-2.4-5.3v-11.2
		C368.8,199.8,368.7,199.3,368.5,199.1z M381.8,262.9l-4.5-2.1l-2.2,4.7l5.1,2.4l-1.2,2.5l-8.1-3.8l7.5-16l8,3.7l-1.2,2.5l-4.9-2.3
		l-1.9,4l4.5,2.1L381.8,262.9z M395.7,262.6l-3.1-1c0.4-1.3,0.6-2.6-0.7-3c-1-0.3-1.9,0.1-2.2,1.3c-1,3.2,5.5,5,3.8,10.3
		c-1.4,4.4-4.5,4-6.9,3.2c-4-1.3-3.9-4.1-2.8-7l3.2,1c-0.5,1.6-0.9,3,0.9,3.6c1.1,0.3,1.9-0.3,2.2-1.4c1-3-5.4-5.3-3.8-10.3
		c0.8-2.6,2.7-4.4,6.6-3.1C396,257.1,397,259.1,395.7,262.6z M397.1,199c-0.2-0.2-0.7-0.3-1.4-0.3h-1v-3.2h22.3v8.5h-3.4
		c-0.2-1.1-0.4-2-0.7-2.6c-0.2-0.6-0.5-1.1-0.9-1.5c-0.4-0.4-0.9-0.7-1.5-0.9c-0.6-0.2-1.5-0.3-2.8-0.3h-0.6h-2.8v6.3h0.8
		c1,0,1.6-0.2,2-0.7c0.4-0.5,0.6-1.4,0.6-2.7v-0.2h2.7v10.4h-2.7c0-1.6-0.2-2.6-0.6-3.1c-0.3-0.5-1-0.7-2-0.7h-0.9v7.1h3.8
		c1.5,0,2.5-0.1,3-0.3c0.6-0.2,1-0.5,1.3-1c0.3-0.5,0.6-1.2,0.8-2c0.2-0.8,0.3-1.8,0.4-2.9h3.5v9.4h-22.5v-3.2h1.1
		c0.7,0,1.2-0.1,1.4-0.3c0.2-0.2,0.3-0.7,0.3-1.5v-0.2v-12.5C397.4,199.8,397.3,199.2,397.1,199z M402.5,191.1c-0.3,0-0.6-0.4-0.6-1
		c0-0.5,0.3-1,0.6-1h32.4c0.3,0,0.6,0.4,0.6,1c0,0.5-0.3,1-0.6,1H402.5z M419.9,223.3c1.6,0,3.1,0,4.3,0l-1.1,30.7
		c-0.6,0.1-2,0.3-3.6,0.3l0-0.2L419.9,223.3z M413.2,223.3c1.2,0,2.7,0,4.3,0l0.4,31.1c-1.6-0.1-2.9-0.3-3.6-0.4L413.2,223.3z
		 M413.2,253.6c-1.1-0.3-0.9-0.2-1.8-0.6l-3.3-29.8c1.2,0,1.6,0,2.8,0L413.2,253.6z M401.6,276.7l-3.3-0.6l2.7-14.5l-3.7-0.7
		l0.5-2.9l10.7,2l-0.5,2.9l-3.7-0.7L401.6,276.7z M410.2,273.8l-1.1,3.9l-3.3-0.2l5.5-17.4l4.4,0.3l3.3,18l-3.5-0.2l-0.7-4
		L410.2,273.8z M421,297.5c0,0-0.3,2-2.3,2c-2,0-2.2-2-2.2-2l-1.4-12.6c0,0,0.8,0.6,3.6,0.6c2.8,0,3.7-0.6,3.7-0.6L421,297.5z
		 M427.9,277.6l-5.5,0.5l-1.5-17.7l5.6-0.5c4.4-0.4,5.5,2.8,6,8.3C432.7,271,433.7,277.2,427.9,277.6z M424.3,253.7l2.3-30.4
		c1.2,0,1.6,0,2.8,0l-3.3,29.8C425.3,253.4,425.3,253.4,424.3,253.7z M443,275.5c-5.4,1.3-6.5-3.1-7.5-7.6
		c-1.1-4.6-2.1-8.9,3.3-10.2c5.4-1.3,6.4,3.1,7.5,7.6C447.4,269.8,448.4,274.2,443,275.5z M446.9,217.5c-0.8,1-2.1,1.4-3.9,1.4
		c-1.9,0-3.3-0.4-4.2-1.3c-0.9-0.9-1.3-2.2-1.3-4.1v-1.9c0-1.5-0.2-2.5-0.6-2.9c-0.4-0.4-1.2-0.6-2.4-0.6h-1.9v5.1
		c0,0.9,0.1,1.4,0.3,1.7c0.2,0.2,0.7,0.3,1.4,0.3h1.2v3.2h-12.8v-3.2h1.1c0.7,0,1.2-0.1,1.4-0.3c0.2-0.2,0.3-0.8,0.3-1.7v-12.5
		c0-0.9-0.1-1.4-0.3-1.6c-0.2-0.2-0.7-0.3-1.4-0.3h-1.1v-3.2h14.7c2.6,0,4.5,0.5,5.8,1.4c1.3,0.9,1.9,2.4,1.9,4.3
		c0,1.3-0.4,2.4-1.2,3.2c-0.8,0.9-1.9,1.5-3.3,1.8c1.4,0.2,2.4,0.7,2.9,1.4c0.5,0.8,0.8,2.5,0.8,5.2c0,0.8,0.1,1.4,0.2,1.7
		c0.1,0.3,0.3,0.5,0.6,0.5c0.3,0,0.5-0.2,0.6-0.6c0.1-0.4,0.2-1,0.2-1.8c0-0.1,0-0.2,0-0.4c0-0.2,0-0.3,0-0.4h2.2c0,0.1,0,0.3,0,0.5
		c0,0.2,0,0.4,0,0.5C448.2,215,447.8,216.5,446.9,217.5z M437.9,185.4c0,0-0.3,2.2-1.7,2.3c-1.4,0-33.7,0-34.9,0
		c-1.1,0-1.5-2.3-1.5-2.3c-13.7-4.2-11.2-12.3-14.8-16.4c-1.1-1.1-0.8-0.7-1.9-1.7c-2.2-1.8-4.2-3.6-2.3-3.5c0,0,75.4,0,76.6,0
		c1.1,0-0.5,1.7-2.7,3.5c-1.1,1-0.8,0.6-1.9,1.7C449.1,173.1,451.6,181.2,437.9,185.4z M452.4,212.6c0-1.4,0.4-2.6,1.2-3.5
		c0.8-0.9,1.8-1.3,3.1-1.3c0.9,0,1.7,0.3,2.2,0.9c0.5,0.6,0.8,1.3,0.8,2.3c0,0.9-0.2,1.6-0.7,2.2c-0.5,0.6-1.1,0.8-1.9,0.8
		c-0.1,0-0.3,0-0.4,0c-0.1,0-0.3,0-0.5-0.1c0.3,0.6,0.6,1,1,1.2c0.4,0.3,0.9,0.4,1.5,0.4c1.2,0,2-0.3,2.4-1c0.5-0.7,0.7-2,0.7-4.1
		v-9.7c0-0.9-0.1-1.4-0.3-1.6c-0.2-0.2-0.7-0.3-1.4-0.3h-1.2v-3.2h12.7v3.2h-1c-0.7,0-1.2,0.1-1.4,0.3c-0.2,0.2-0.3,0.7-0.3,1.5v0.2
		v10c0,1.7-0.1,3-0.4,3.9c-0.3,0.9-0.7,1.7-1.4,2.3c-0.7,0.7-1.7,1.3-2.8,1.6c-1.1,0.4-2.4,0.5-3.9,0.5c-2.4,0-4.3-0.6-5.7-1.8
		C453.1,216,452.4,214.5,452.4,212.6z M468,265.6l-4.8,2.6l-8.4-15.6l5-2.7c3.9-2.1,6.2,0.4,8.8,5.2
		C469.7,257.6,473,262.9,468,265.6z M481,257.7c-4.4,3.3-7.2-0.3-9.9-4c-2.8-3.8-5.5-7.3-1-10.7c4.4-3.3,7.1,0.2,9.9,4
		C482.7,250.7,485.4,254.3,481,257.7z M500.8,237.8c-1.1-0.3-2-1.2-2.9-1.9c-1.6-1.3-2.9-2.6-4.6-0.6l-0.5,0.7l5.7,4.6l-2.1,2.6
		l-13.8-11.1l3.9-4.8c1.4-1.8,3.6-1.9,6,0c1.8,1.4,2.6,3.1,1.5,5.1l0,0c0.5-0.5,2.1-2.1,4.5-0.1c0.9,0.7,3.5,2.8,4.3,3L500.8,237.8z
		 M504.7,232.4l-14.8-9.7l1.8-2.8l14.8,9.7L504.7,232.4z M511.5,221.4c-2.5,5-6.5,2.9-10.7,0.8c-4.2-2.1-8.2-4.2-5.6-9.1
		c2.5-5,6.5-2.9,10.7-0.8C510,214.4,514,216.5,511.5,221.4z M520.2,196.1l-1.2,5.4l-17.3-3.7l1.2-5.5c0.9-4.3,4.3-4.4,9.7-3.3
		C515.2,189.5,521.4,190.4,520.2,196.1z M521.8,186.5l-17.7-1.4l0.7-8.8l2.7,0.2l-0.4,5.4l4.4,0.3l0.4-5l2.7,0.2l-0.4,5l5.2,0.4
		l0.4-5.6l2.7,0.2L521.8,186.5z"/>
	<path class="st0" d="M490.7,230.2c-1.3-1.1-2.2-1-2.9-0.1l-0.9,1.2l3.8,3.1l0.9-1.2C492.4,232.1,491.5,230.9,490.7,230.2z"/>
	<path class="st0" d="M330.7,150.8c1.6,0.5,2.4,0,2.7-1l0.4-1.4l-4.7-1.4l-0.4,1.4C328.3,149.7,329.6,150.4,330.7,150.8z"/>
	<path class="st0" d="M477.7,100c2.7-3.6,3.7-5.3,2.2-6.5c-1.5-1.1-2.9,0.3-5.6,3.9c-2.7,3.6-3.7,5.3-2.2,6.5
		C473.6,105,474.9,103.6,477.7,100z"/>
	<path class="st0" d="M471.6,245.1c-1.5,1.1-0.5,2.9,2.2,6.5c2.7,3.6,4.1,5.1,5.6,3.9c1.5-1.1,0.5-2.9-2.2-6.5
		C474.5,245.4,473.1,244,471.6,245.1z"/>
</g>
</svg>
